<mxfile host="app.diagrams.net" agent="Mozilla/5.0 (Windows NT 10.0; Win64; x64) AppleWebKit/537.36 (KHTML, like Gecko) Chrome/133.0.0.0 Safari/537.36 Edg/133.0.0.0" version="26.0.15">
  <diagram name="Sayfa -1" id="jUC1PIWjqmxwx7Gk67Sa">
    <mxGraphModel dx="1426" dy="789" grid="1" gridSize="10" guides="1" tooltips="1" connect="1" arrows="1" fold="1" page="1" pageScale="1" pageWidth="827" pageHeight="1169" math="0" shadow="0">
      <root>
        <mxCell id="0" />
        <mxCell id="1" parent="0" />
        <mxCell id="Bb7nuyD2ogUne2BvpT8S-26" value="" style="edgeStyle=orthogonalEdgeStyle;rounded=0;orthogonalLoop=1;jettySize=auto;html=1;" parent="1" source="Bb7nuyD2ogUne2BvpT8S-1" target="Bb7nuyD2ogUne2BvpT8S-23" edge="1">
          <mxGeometry relative="1" as="geometry" />
        </mxCell>
        <mxCell id="Bb7nuyD2ogUne2BvpT8S-1" value="Ürün Kabul" style="rounded=0;whiteSpace=wrap;html=1;" parent="1" vertex="1">
          <mxGeometry x="370" y="180" width="120" height="60" as="geometry" />
        </mxCell>
        <mxCell id="Bb7nuyD2ogUne2BvpT8S-10" value="" style="edgeStyle=orthogonalEdgeStyle;rounded=0;orthogonalLoop=1;jettySize=auto;html=1;" parent="1" source="Bb7nuyD2ogUne2BvpT8S-2" target="Bb7nuyD2ogUne2BvpT8S-4" edge="1">
          <mxGeometry relative="1" as="geometry" />
        </mxCell>
        <mxCell id="Bb7nuyD2ogUne2BvpT8S-2" value="Kalite Kontrol" style="rounded=0;whiteSpace=wrap;html=1;" parent="1" vertex="1">
          <mxGeometry x="370" y="410" width="120" height="60" as="geometry" />
        </mxCell>
        <mxCell id="Bb7nuyD2ogUne2BvpT8S-3" value="Depo Girişi" style="rounded=0;whiteSpace=wrap;html=1;" parent="1" vertex="1">
          <mxGeometry x="260" y="620" width="120" height="60" as="geometry" />
        </mxCell>
        <mxCell id="Bb7nuyD2ogUne2BvpT8S-5" value="" style="edgeStyle=orthogonalEdgeStyle;rounded=0;orthogonalLoop=1;jettySize=auto;html=1;" parent="1" source="Bb7nuyD2ogUne2BvpT8S-4" target="Bb7nuyD2ogUne2BvpT8S-3" edge="1">
          <mxGeometry relative="1" as="geometry" />
        </mxCell>
        <mxCell id="Bb7nuyD2ogUne2BvpT8S-6" value="Evet" style="edgeLabel;html=1;align=center;verticalAlign=middle;resizable=0;points=[];" parent="Bb7nuyD2ogUne2BvpT8S-5" vertex="1" connectable="0">
          <mxGeometry x="-0.4667" y="5" relative="1" as="geometry">
            <mxPoint y="-5" as="offset" />
          </mxGeometry>
        </mxCell>
        <mxCell id="Bb7nuyD2ogUne2BvpT8S-8" value="" style="edgeStyle=orthogonalEdgeStyle;rounded=0;orthogonalLoop=1;jettySize=auto;html=1;" parent="1" source="Bb7nuyD2ogUne2BvpT8S-4" target="Bb7nuyD2ogUne2BvpT8S-7" edge="1">
          <mxGeometry relative="1" as="geometry" />
        </mxCell>
        <mxCell id="Bb7nuyD2ogUne2BvpT8S-9" value="Hayır" style="edgeLabel;html=1;align=center;verticalAlign=middle;resizable=0;points=[];" parent="Bb7nuyD2ogUne2BvpT8S-8" vertex="1" connectable="0">
          <mxGeometry x="-0.3611" relative="1" as="geometry">
            <mxPoint x="15" as="offset" />
          </mxGeometry>
        </mxCell>
        <mxCell id="Bb7nuyD2ogUne2BvpT8S-4" value="Kontrolden geçti mi?" style="rhombus;whiteSpace=wrap;html=1;" parent="1" vertex="1">
          <mxGeometry x="390" y="500" width="80" height="80" as="geometry" />
        </mxCell>
        <mxCell id="Bb7nuyD2ogUne2BvpT8S-19" value="" style="edgeStyle=orthogonalEdgeStyle;rounded=0;orthogonalLoop=1;jettySize=auto;html=1;" parent="1" source="Bb7nuyD2ogUne2BvpT8S-7" target="Bb7nuyD2ogUne2BvpT8S-17" edge="1">
          <mxGeometry relative="1" as="geometry">
            <Array as="points">
              <mxPoint x="740" y="540" />
              <mxPoint x="740" y="100" />
            </Array>
          </mxGeometry>
        </mxCell>
        <mxCell id="Bb7nuyD2ogUne2BvpT8S-7" value="İade" style="rounded=0;whiteSpace=wrap;html=1;" parent="1" vertex="1">
          <mxGeometry x="580" y="510" width="120" height="60" as="geometry" />
        </mxCell>
        <mxCell id="BuvcBP0S9gr9oj0ZS2NX-1" value="" style="edgeStyle=orthogonalEdgeStyle;rounded=0;orthogonalLoop=1;jettySize=auto;html=1;" edge="1" parent="1" source="Bb7nuyD2ogUne2BvpT8S-13" target="Bb7nuyD2ogUne2BvpT8S-20">
          <mxGeometry relative="1" as="geometry" />
        </mxCell>
        <mxCell id="Bb7nuyD2ogUne2BvpT8S-13" value="Üretim" style="whiteSpace=wrap;html=1;rounded=0;" parent="1" vertex="1">
          <mxGeometry x="260" y="1120" width="120" height="60" as="geometry" />
        </mxCell>
        <mxCell id="Bb7nuyD2ogUne2BvpT8S-18" value="" style="edgeStyle=orthogonalEdgeStyle;rounded=0;orthogonalLoop=1;jettySize=auto;html=1;" parent="1" source="Bb7nuyD2ogUne2BvpT8S-17" target="Bb7nuyD2ogUne2BvpT8S-1" edge="1">
          <mxGeometry relative="1" as="geometry" />
        </mxCell>
        <mxCell id="Bb7nuyD2ogUne2BvpT8S-17" value="Satın Alma" style="rounded=0;whiteSpace=wrap;html=1;" parent="1" vertex="1">
          <mxGeometry x="370" y="70" width="120" height="60" as="geometry" />
        </mxCell>
        <mxCell id="Bb7nuyD2ogUne2BvpT8S-20" value="Satış" style="whiteSpace=wrap;html=1;rounded=0;" parent="1" vertex="1">
          <mxGeometry x="50" y="1120" width="120" height="60" as="geometry" />
        </mxCell>
        <mxCell id="Bb7nuyD2ogUne2BvpT8S-24" value="" style="edgeStyle=orthogonalEdgeStyle;rounded=0;orthogonalLoop=1;jettySize=auto;html=1;" parent="1" source="Bb7nuyD2ogUne2BvpT8S-23" target="Bb7nuyD2ogUne2BvpT8S-2" edge="1">
          <mxGeometry relative="1" as="geometry" />
        </mxCell>
        <mxCell id="Bb7nuyD2ogUne2BvpT8S-25" value="Evet" style="edgeLabel;html=1;align=center;verticalAlign=middle;resizable=0;points=[];" parent="Bb7nuyD2ogUne2BvpT8S-24" vertex="1" connectable="0">
          <mxGeometry x="-0.55" y="2" relative="1" as="geometry">
            <mxPoint as="offset" />
          </mxGeometry>
        </mxCell>
        <mxCell id="Bb7nuyD2ogUne2BvpT8S-27" style="edgeStyle=orthogonalEdgeStyle;rounded=0;orthogonalLoop=1;jettySize=auto;html=1;entryX=0.25;entryY=0;entryDx=0;entryDy=0;" parent="1" source="Bb7nuyD2ogUne2BvpT8S-23" target="Bb7nuyD2ogUne2BvpT8S-3" edge="1">
          <mxGeometry relative="1" as="geometry">
            <Array as="points">
              <mxPoint x="290" y="310" />
            </Array>
          </mxGeometry>
        </mxCell>
        <mxCell id="Bb7nuyD2ogUne2BvpT8S-28" value="Hayır" style="edgeLabel;html=1;align=center;verticalAlign=middle;resizable=0;points=[];" parent="Bb7nuyD2ogUne2BvpT8S-27" vertex="1" connectable="0">
          <mxGeometry x="-0.73" y="3" relative="1" as="geometry">
            <mxPoint x="14" y="-3" as="offset" />
          </mxGeometry>
        </mxCell>
        <mxCell id="Bb7nuyD2ogUne2BvpT8S-23" value="Kalite Kontrol Gerektiriyor mu?" style="rhombus;whiteSpace=wrap;html=1;" parent="1" vertex="1">
          <mxGeometry x="380" y="260" width="100" height="100" as="geometry" />
        </mxCell>
        <mxCell id="Bb7nuyD2ogUne2BvpT8S-32" value="" style="edgeStyle=orthogonalEdgeStyle;rounded=0;orthogonalLoop=1;jettySize=auto;html=1;" parent="1" source="Bb7nuyD2ogUne2BvpT8S-29" target="Bb7nuyD2ogUne2BvpT8S-31" edge="1">
          <mxGeometry relative="1" as="geometry" />
        </mxCell>
        <mxCell id="Bb7nuyD2ogUne2BvpT8S-35" value="Evet" style="edgeLabel;html=1;align=center;verticalAlign=middle;resizable=0;points=[];" parent="Bb7nuyD2ogUne2BvpT8S-32" vertex="1" connectable="0">
          <mxGeometry x="-0.1273" relative="1" as="geometry">
            <mxPoint as="offset" />
          </mxGeometry>
        </mxCell>
        <mxCell id="Bb7nuyD2ogUne2BvpT8S-31" value="İlgili Birim Teslimi" style="rounded=0;whiteSpace=wrap;html=1;" parent="1" vertex="1">
          <mxGeometry x="40" y="800" width="120" height="60" as="geometry" />
        </mxCell>
        <mxCell id="Bb7nuyD2ogUne2BvpT8S-33" value="" style="edgeStyle=orthogonalEdgeStyle;rounded=0;orthogonalLoop=1;jettySize=auto;html=1;" parent="1" source="Bb7nuyD2ogUne2BvpT8S-3" target="Bb7nuyD2ogUne2BvpT8S-29" edge="1">
          <mxGeometry relative="1" as="geometry">
            <mxPoint x="320" y="680" as="sourcePoint" />
            <mxPoint x="320" y="990" as="targetPoint" />
          </mxGeometry>
        </mxCell>
        <mxCell id="Bb7nuyD2ogUne2BvpT8S-38" value="" style="edgeStyle=orthogonalEdgeStyle;rounded=0;orthogonalLoop=1;jettySize=auto;html=1;" parent="1" source="Bb7nuyD2ogUne2BvpT8S-29" target="Bb7nuyD2ogUne2BvpT8S-36" edge="1">
          <mxGeometry relative="1" as="geometry" />
        </mxCell>
        <mxCell id="Bb7nuyD2ogUne2BvpT8S-29" value="Demirbaş mı?" style="rhombus;whiteSpace=wrap;html=1;" parent="1" vertex="1">
          <mxGeometry x="270" y="780" width="100" height="100" as="geometry" />
        </mxCell>
        <mxCell id="Bb7nuyD2ogUne2BvpT8S-39" value="" style="edgeStyle=orthogonalEdgeStyle;rounded=0;orthogonalLoop=1;jettySize=auto;html=1;" parent="1" source="Bb7nuyD2ogUne2BvpT8S-36" target="Bb7nuyD2ogUne2BvpT8S-13" edge="1">
          <mxGeometry relative="1" as="geometry" />
        </mxCell>
        <mxCell id="Bb7nuyD2ogUne2BvpT8S-41" value="Hayır" style="edgeLabel;html=1;align=center;verticalAlign=middle;resizable=0;points=[];" parent="Bb7nuyD2ogUne2BvpT8S-39" vertex="1" connectable="0">
          <mxGeometry x="-0.2248" relative="1" as="geometry">
            <mxPoint as="offset" />
          </mxGeometry>
        </mxCell>
        <mxCell id="Bb7nuyD2ogUne2BvpT8S-45" style="edgeStyle=orthogonalEdgeStyle;rounded=0;orthogonalLoop=1;jettySize=auto;html=1;entryX=0.5;entryY=0;entryDx=0;entryDy=0;" parent="1" source="Bb7nuyD2ogUne2BvpT8S-36" target="Bb7nuyD2ogUne2BvpT8S-20" edge="1">
          <mxGeometry relative="1" as="geometry" />
        </mxCell>
        <mxCell id="Bb7nuyD2ogUne2BvpT8S-46" value="Evet" style="edgeLabel;html=1;align=center;verticalAlign=middle;resizable=0;points=[];" parent="Bb7nuyD2ogUne2BvpT8S-45" vertex="1" connectable="0">
          <mxGeometry x="-0.4667" y="3" relative="1" as="geometry">
            <mxPoint x="13" y="-3" as="offset" />
          </mxGeometry>
        </mxCell>
        <mxCell id="Bb7nuyD2ogUne2BvpT8S-36" value="Doğrudan Satış mı?" style="rhombus;whiteSpace=wrap;html=1;" parent="1" vertex="1">
          <mxGeometry x="270" y="920" width="100" height="100" as="geometry" />
        </mxCell>
        <mxCell id="Bb7nuyD2ogUne2BvpT8S-47" value="Mal Kabul" style="text;html=1;align=center;verticalAlign=middle;resizable=0;points=[];autosize=1;strokeColor=none;fillColor=none;fontSize=20;" parent="1" vertex="1">
          <mxGeometry x="370" y="3" width="110" height="40" as="geometry" />
        </mxCell>
      </root>
    </mxGraphModel>
  </diagram>
</mxfile>
